<svg xmlns="http://www.w3.org/2000/svg"  viewBox="0 0 48 48" width="48px" height="48px"><path d="M 3.5 12 C 1.805 12 0.3556875 13.211859 0.0546875 14.880859 C -0.2473125 16.553859 0.69110937 18.194203 2.2871094 18.783203 C 3.9791094 19.424203 6.7825156 21.023578 7.3535156 22.392578 C 7.4305156 22.577578 7.4704531 22.709734 7.3144531 23.052734 C 6.7974531 24.189734 6.92725 25.526969 7.65625 26.542969 C 8.31225 27.455969 9.3740938 28 10.496094 28 C 10.599094 28 10.703641 27.995328 10.806641 27.986328 L 10.8125 27.986328 L 10.828125 27.984375 C 10.837125 27.983375 10.846469 27.981469 10.855469 27.980469 L 10.880859 27.978516 C 11.153859 27.950516 11.726812 27.904297 12.507812 27.904297 C 15.236812 27.904297 19.909687 28.450422 20.554688 32.107422 C 20.846688 33.783422 22.297 35 24 35 C 25.703 35 27.153266 33.783469 27.447266 32.105469 C 28.092266 28.450469 32.764187 27.904297 35.492188 27.904297 C 36.310187 27.904297 36.902141 27.955516 37.119141 27.978516 L 37.154297 27.982422 L 37.162109 27.984375 C 37.275109 27.994375 37.389953 28 37.501953 28 C 38.624953 28 39.68775 27.455016 40.34375 26.541016 C 41.07275 25.526016 41.203547 24.188781 40.685547 23.050781 C 40.529547 22.708781 40.569484 22.576578 40.646484 22.392578 C 41.217484 21.022578 44.020375 19.424391 45.734375 18.775391 C 47.307375 18.194391 48.246312 16.553859 47.945312 14.880859 C 47.644313 13.211859 46.195 12 44.5 12 L 31.5 12 C 29.996 12 28.707844 12.957922 28.214844 14.294922 C 27.572844 13.505922 26.594 13 25.5 13 C 24.964 13 24.455 13.120891 24 13.337891 C 23.545 13.120891 23.036 13 22.5 13 C 21.407 13 20.428156 13.504969 19.785156 14.292969 C 19.293156 12.958969 18.005 12 16.5 12 L 3.5 12 z M 3.5 15 L 16.5 15 C 16.775 15 16.999 15.223047 17 15.498047 C 17 15.642047 17.039 19 19.5 19 L 22 19 L 22 16.5 C 22 16.224 22.224 16 22.5 16 C 22.776 16 23 16.224 23 16.5 L 23 17.277344 C 23.295 17.106344 23.634 17 24 17 C 24.366 17 24.705 17.106344 25 17.277344 L 25 16.5 C 25 16.224 25.224 16 25.5 16 C 25.776 16 26 16.224 26 16.5 L 26 19 L 28.5 19 C 30.961 19 31 15.642047 31 15.498047 C 31.001 15.223047 31.225 15 31.5 15 L 44.5 15 C 44.742 15 44.949187 15.174109 44.992188 15.412109 C 45.035187 15.650109 44.900828 15.88475 44.673828 15.96875 C 44.619828 15.98975 39.223906 18.014281 37.878906 21.238281 C 37.455906 22.251281 37.481078 23.250922 37.955078 24.294922 C 38.029078 24.457922 38.01125 24.647969 37.90625 24.792969 C 37.81225 24.922969 37.661953 25 37.501953 25 C 37.484953 25 37.466219 24.998094 37.449219 24.996094 C 37.412219 24.993094 36.643187 24.904297 35.492188 24.904297 C 32.133187 24.904297 25.537188 25.669891 24.492188 31.587891 C 24.450188 31.826891 24.242 32 24 32 C 23.758 32 23.549813 31.826891 23.507812 31.587891 C 22.463812 25.668891 15.863859 24.904297 12.505859 24.904297 C 11.356859 24.904297 10.587781 24.993094 10.550781 24.996094 C 10.532781 24.998094 10.514094 25 10.496094 25 C 10.342094 25 10.18775 24.921016 10.09375 24.791016 C 9.98975 24.645016 9.9709219 24.455969 10.044922 24.292969 C 10.519922 23.248969 10.544094 22.249328 10.121094 21.236328 C 8.7760937 18.012328 3.3801719 15.98975 3.3261719 15.96875 C 3.0991719 15.88575 2.9648125 15.650109 3.0078125 15.412109 C 3.0508125 15.174109 3.258 15 3.5 15 z"/></svg>